<?xml version="1.0" standalone="no"?><!DOCTYPE svg PUBLIC "-//W3C//DTD SVG 1.1//EN" "http://www.w3.org/Graphics/SVG/1.1/DTD/svg11.dtd"><svg t="1649228287179" class="icon" viewBox="0 0 1024 1024" version="1.1" xmlns="http://www.w3.org/2000/svg" p-id="1288" xmlns:xlink="http://www.w3.org/1999/xlink" width="200" height="200"><defs><style type="text/css"></style></defs><path d="M945.125 185.75c-5.625-56.25-50.625-101.25-106.875-106.875L602 62C557 62 512 73.25 483.875 107L107 483.875c-56.25 56.25-56.25 151.875 0 208.125l225 225c28.125 28.125 61.875 45 101.25 45s78.75-16.875 106.875-45l376.875-376.875c33.75-28.125 45-73.125 45-118.125l-16.875-236.25z m-78.75 303.75l-376.875 376.875c-28.125 28.125-78.75 28.125-112.5 0l-225-225c-28.125-28.125-28.125-78.75 0-112.5l376.875-376.875c16.875-16.875 33.75-22.5 56.25-22.5h5.625l236.25 16.875c22.5 0 39.375 22.5 45 45l16.875 236.25c5.625 22.5-5.625 45-22.5 61.875z" p-id="1289"></path><path d="M568.25 275.75c-45 50.625-45 129.375 0 180 22.5 22.5 56.25 39.375 90 39.375 11.25 0 16.875 0 28.125-5.625 22.5-5.625 45-16.875 61.875-33.75 16.875-16.875 28.125-39.375 33.75-61.875 11.25-45-5.625-84.375-33.75-118.125-45-50.625-129.375-50.625-180 0z m146.25 101.25c0 11.25-5.625 22.5-16.875 28.125-5.625 5.625-16.875 11.25-28.125 16.875-16.875 5.625-39.375 0-56.25-16.875-22.5-22.5-22.5-56.25 0-78.75 11.25-11.25 28.125-16.875 39.375-16.875 16.875 0 28.125 5.625 39.375 16.875 22.5 11.25 28.125 28.125 22.5 50.625z" p-id="1290"></path></svg>